<svg width="419" height="419" viewBox="0 0 419 419" fill="none" xmlns="http://www.w3.org/2000/svg">
<path fill-rule="evenodd" clip-rule="evenodd" d="M81 0C36.2649 0 0 36.2649 0 81V338C0 382.735 36.2649 419 81 419H338C382.735 419 419 382.735 419 338V81C419 36.2649 382.735 0 338 0H81ZM53.4106 98L53.364 98.0318L129.823 210.293L53 321H114.983L191.511 210.718L191.044 210.393L191.357 210.179L114.954 98H53.4106ZM193.34 140.632H244.091V140.854H251.074C286.927 140.854 312.324 155.517 312.324 208.483C312.324 261.45 286.927 277.909 251.074 277.909H244.091V321H257.348C322.183 321 367 285.988 367 208.483C367 130.979 322.183 98.0615 254.361 98.0615H193.34V140.632ZM207.255 300.504C207.255 309.56 199.925 316.901 190.884 316.901C181.842 316.901 174.512 309.56 174.512 300.504C174.512 291.448 181.842 284.107 190.884 284.107C199.925 284.107 207.255 291.448 207.255 300.504Z" fill="#1F1F1F"/>
</svg>
